{
  "asset": {
    "version": "2.0",
    "generator": "ModelConverterX"
  },
  "extensionsUsed": [
    "ASOBO_material_day_night_switch"
  ],
  "scene": 0,
  "scenes": [
    {
      "nodes": [
        0
      ]
    }
  ],
  "nodes": [
    {
      "name": "node0",
      "children": [
        1
      ]
    },
    {
      "name": "node1",
      "mesh": 0
    }
  ],
  "meshes": [
    {
      "primitives": [
        {
          "attributes": {
            "POSITION": 0,
            "NORMAL": 1,
            "TEXCOORD_0": 2
          },
          "indices": 3,
          "mode": 4,
          "material": 0
        }
      ],
      "name": "part000"
    }
  ],
  "accessors": [
    {
      "bufferView": 1,
      "byteOffset": 0,
      "componentType": 5126,
      "count": 2646,
      "type": "VEC3",
      "min": [
        -0.84776997566223145,
        -0.854170024394989,
        6.4436001777648926
      ],
      "max": [
        -0.5975000262260437,
        0.858489990234375,
        7.6315298080444336
      ]
    },
    {
      "bufferView": 2,
      "byteOffset": 0,
      "componentType": 5126,
      "count": 2646,
      "type": "VEC3"
    },
    {
      "bufferView": 3,
      "byteOffset": 0,
      "componentType": 5126,
      "count": 2646,
      "type": "VEC2"
    },
    {
      "bufferView": 0,
      "byteOffset": 0,
      "componentType": 5125,
      "count": 14436,
      "type": "SCALAR"
    }
  ],
  "materials": [
    {
      "name": "material00",
      "pbrMetallicRoughness": {
        "baseColorFactor": [
          0.5,
          0.5,
          0.5,
          1.0
        ],
        "roughnessFactor": 1.0,
        "metallicFactor": 1.0,
        "baseColorTexture": {
          "index": 0
        }
      },
      "emissiveFactor": [
        0.0,
        0.0,
        0.0
      ],
      "extensions": {
        "ASOBO_material_day_night_switch": {
          "enabled": true
        }
      }
    }
  ],
  "textures": [
    {
      "source": 0,
      "name": "combinaci贸ndecapa1-texturadifusi贸n"
    }
  ],
  "images": [
    {
      "uri": "combinaci贸ndecapa1-texturadifusi贸n.png"
    }
  ],
  "bufferViews": [
    {
      "buffer": 0,
      "byteOffset": 0,
      "byteLength": 57744
    },
    {
      "buffer": 0,
      "byteOffset": 57744,
      "byteLength": 31752,
      "byteStride": 12
    },
    {
      "buffer": 0,
      "byteOffset": 89496,
      "byteLength": 31752,
      "byteStride": 12
    },
    {
      "buffer": 0,
      "byteOffset": 121248,
      "byteLength": 21168,
      "byteStride": 8
    }
  ],
  "buffers": [
    {
      "byteLength": 142416,
      "uri": "1800-removebg-preview.bin"
    }
  ]
}